<svg width="900" height="620" viewBox="0 0 900 620" fill="none" xmlns="http://www.w3.org/2000/svg">
  <defs>
    <linearGradient id="bgA" x1="62" y1="42" x2="840" y2="570" gradientUnits="userSpaceOnUse">
      <stop stop-color="#173A8A"/>
      <stop offset="1" stop-color="#0A245F"/>
    </linearGradient>
    <radialGradient id="skin" cx="0" cy="0" r="1" gradientUnits="userSpaceOnUse" gradientTransform="translate(355 228) rotate(90) scale(132 112)">
      <stop stop-color="#FFD8B2"/>
      <stop offset="1" stop-color="#D3A17A"/>
    </radialGradient>
    <linearGradient id="hair" x1="280" y1="136" x2="440" y2="238" gradientUnits="userSpaceOnUse">
      <stop stop-color="#202D58"/>
      <stop offset="1" stop-color="#111A3D"/>
    </linearGradient>
    <linearGradient id="suit" x1="164" y1="318" x2="534" y2="560" gradientUnits="userSpaceOnUse">
      <stop stop-color="#142D72"/>
      <stop offset="1" stop-color="#0B1F53"/>
    </linearGradient>
    <linearGradient id="shirt" x1="348" y1="358" x2="356" y2="482" gradientUnits="userSpaceOnUse">
      <stop stop-color="#F8FCFF"/>
      <stop offset="1" stop-color="#CEDBF2"/>
    </linearGradient>
    <linearGradient id="tie" x1="356" y1="374" x2="356" y2="542" gradientUnits="userSpaceOnUse">
      <stop stop-color="#000E35"/>
      <stop offset="1" stop-color="#03133D"/>
    </linearGradient>
    <linearGradient id="cyanGlow" x1="170" y1="535" x2="550" y2="535" gradientUnits="userSpaceOnUse">
      <stop stop-color="#2ED5FF"/>
      <stop offset="1" stop-color="#2289FF"/>
    </linearGradient>
    <filter id="blur20" x="0" y="0" width="900" height="620" filterUnits="userSpaceOnUse" color-interpolation-filters="sRGB">
      <feGaussianBlur stdDeviation="14"/>
    </filter>
  </defs>

  <rect x="20" y="20" width="860" height="580" rx="40" fill="url(#bgA)"/>
  <rect x="20" y="20" width="860" height="580" rx="40" stroke="#2F7CFF" stroke-opacity="0.6" stroke-width="2"/>

  <g opacity="0.5">
    <circle cx="740" cy="140" r="64" fill="#4BA7FF"/>
    <circle cx="140" cy="470" r="102" fill="#2B90FF" fill-opacity="0.6"/>
    <path d="M600 118H804" stroke="#63D0FF" stroke-width="3"/>
    <path d="M600 152H804" stroke="#63D0FF" stroke-width="3"/>
    <path d="M600 186H754" stroke="#63D0FF" stroke-width="3"/>
  </g>

  <ellipse cx="356" cy="360" rx="168" ry="196" fill="#1D3E8F" opacity="0.4"/>

  <ellipse cx="356" cy="236" rx="112" ry="132" fill="url(#skin)"/>
  <path d="M244 224C244 156 294 102 356 102C418 102 468 156 468 224C435 188 404 172 356 172C308 172 277 188 244 224Z" fill="url(#hair)"/>

  <ellipse cx="320" cy="244" rx="12" ry="8" fill="#C98B67" opacity="0.35"/>
  <ellipse cx="392" cy="244" rx="12" ry="8" fill="#C98B67" opacity="0.35"/>
  <path d="M332 292C347 304 365 304 380 292" stroke="#C78462" stroke-width="5" stroke-linecap="round" opacity="0.6"/>

  <rect x="316" y="320" width="80" height="84" rx="26" fill="#D8AB84"/>

  <path d="M126 560C168 420 250 334 356 334C462 334 544 420 586 560H126Z" fill="url(#suit)"/>
  <path d="M274 358H438L356 470L274 358Z" fill="url(#shirt)"/>
  <rect x="338" y="372" width="36" height="178" rx="16" fill="url(#tie)"/>

  <path d="M126 560C168 420 250 334 356 334C402 334 442 350 476 378L444 560H126Z" fill="#132D73" opacity="0.35"/>
  <path d="M586 560C544 420 462 334 356 334C310 334 270 350 236 378L268 560H586Z" fill="#0D1F51" opacity="0.4"/>

  <g filter="url(#blur20)" opacity="0.5">
    <rect x="188" y="528" width="360" height="18" rx="9" fill="#2ED5FF"/>
  </g>
  <rect x="188" y="528" width="360" height="18" rx="9" fill="url(#cyanGlow)"/>

  <rect x="20" y="20" width="860" height="580" rx="40" stroke="#3ABEFF" stroke-opacity="0.18" stroke-width="1"/>
</svg>
